<!--?xml version="1.0" encoding="utf-8"?-->
<!-- Generator: Adobe Illustrator 18.1.1, SVG Export Plug-In . SVG Version: 6.00 Build 0)  -->

<svg version="1.1" id="_x32_" xmlns="http://www.w3.org/2000/svg" xmlns:xlink="http://www.w3.org/1999/xlink" x="0px" y="0px" viewBox="0 0 512 512" style="width: 512px; height: 512px; opacity: 1;" xml:space="preserve">
<style type="text/css">
	.st0{fill:#4B4B4B;}
</style>
<g>
	<path class="st0" d="M354.178,282.058c-22.11,14.417-47.05,9.41-67.511-8.107l-46.98,46.98l-43.208-43.208l54.932-54.932
		c-15.064-43.244,11.181-73.721,27.159-83.323c27.007-16.192,14.044-29.146,2.762-31.009c-15.256-2.5-36.08-0.148-56.818,18.004
		c-37.962,33.184-21.43,82.266-101.472,97.274C36.325,239.997-3.824,290.387,6.2,353.16c7.793,48.852,45.585,84.47,59.222,98.118
		c13.637,13.633,49.266,51.425,98.11,59.222c62.791,10.024,112.112-30.329,129.43-116.847c12.26-61.204,69.83-38.155,91.1-83.885
		C398.469,278.81,373.204,269.66,354.178,282.058z M129.516,439.753l-51.847-51.84l23.035-23.035l51.851,51.847L129.516,439.753z
		 M172.002,397.278l-51.851-51.855l21.781-21.771l51.851,51.848L172.002,397.278z M209.266,360.003l-51.84-51.848l21.77-21.778
		l51.844,51.84L209.266,360.003z" style="fill: rgb(0, 0, 0);"></path>
	<polygon class="st0" points="205.12,277.723 239.687,312.298 416.833,135.156 382.265,100.588 	" style="fill: rgb(0, 0, 0);"></polygon>
	<path class="st0" d="M497.474,25.691c-11.928-11.932-30.032-13.175-40.426-2.774l-38.903,38.895
		c-10.396,10.408-30.129,30.129-30.129,30.129s10.016,10.016,23.054,23.042c27.362,27.37,41.738,22.14,58.349-3.773
		c9.417-34.767,20.435-34.693,30.832-45.086C510.649,55.731,509.41,37.637,497.474,25.691z" style="fill: rgb(0, 0, 0);"></path>
	<path class="st0" d="M434.206,23.212c1.076,1.08,2.818,1.08,3.887,0.015L451.36,9.956c1.084-1.087,1.084-2.825,0-3.89L446.1,0.799
		c-1.069-1.066-2.804-1.066-3.891,0l-13.264,13.27c-1.069,1.073-1.069,2.826,0,3.891L434.206,23.212z" style="fill: rgb(0, 0, 0);"></path>
	<path class="st0" d="M408.437,48.999c1.069,1.066,2.803,1.066,3.88,0l13.275-13.27c1.069-1.08,1.069-2.811,0-3.891l-5.26-5.252
		c-1.076-1.08-2.818-1.08-3.887,0l-13.274,13.27c-1.069,1.065-1.069,2.804,0.008,3.891L408.437,48.999z" style="fill: rgb(0, 0, 0);"></path>
	<path class="st0" d="M382.654,74.764c1.076,1.072,2.818,1.072,3.891,0.015l13.27-13.278c1.069-1.08,1.069-2.811,0-3.884
		l-5.259-5.259c-1.076-1.08-2.818-1.08-3.887,0l-13.274,13.264c-1.07,1.08-1.07,2.803,0.007,3.891L382.654,74.764z" style="fill: rgb(0, 0, 0);"></path>
</g>
</svg>
